<svg width="36" height="26" viewBox="0 0 36 26" fill="none" xmlns="http://www.w3.org/2000/svg">
<path d="M29.2917 22.2748V23.1676C29.2917 24.647 27.9858 25.8462 26.375 25.8462H3.04167C1.43082 25.8462 0.125 24.647 0.125 23.1676V8.88191C0.125 7.40255 1.43082 6.20333 3.04167 6.20333H4.01389V17.8105C4.01389 20.2721 6.19458 22.2748 8.875 22.2748H29.2917ZM35.125 17.8105V3.52476C35.125 2.04541 33.8192 0.846191 32.2083 0.846191H8.875C7.26415 0.846191 5.95833 2.04541 5.95833 3.52476V17.8105C5.95833 19.2898 7.26415 20.489 8.875 20.489H32.2083C33.8192 20.489 35.125 19.2898 35.125 17.8105ZM15.6806 6.20333C15.6806 7.68269 14.3747 8.88191 12.7639 8.88191C11.153 8.88191 9.84722 7.68269 9.84722 6.20333C9.84722 4.72398 11.153 3.52476 12.7639 3.52476C14.3747 3.52476 15.6806 4.72398 15.6806 6.20333ZM9.84722 14.239L13.2205 11.1411C13.5053 10.8796 13.967 10.8796 14.2518 11.1411L16.6528 13.3462L24.8872 5.78397C25.1719 5.52247 25.6336 5.52247 25.9184 5.78397L31.2361 10.6676V16.9176H9.84722V14.239Z" fill="white"/>
</svg>
