<svg width="38" height="38" viewBox="0 0 38 38" fill="none" xmlns="http://www.w3.org/2000/svg">
<path d="M26.125 0C19.57 0 14.25 5.32 14.25 11.875C14.25 12.635 14.25 13.395 14.3925 14.1075L0 28.5V38H14.25V28.5H23.75V23.75L23.8925 23.6075C24.605 23.75 25.365 23.75 26.125 23.75C32.68 23.75 38 18.43 38 11.875C38 5.32 32.68 0 26.125 0ZM28.5 4.75C31.1125 4.75 33.25 6.8875 33.25 9.5C33.25 12.1125 31.1125 14.25 28.5 14.25C25.8875 14.25 23.75 12.1125 23.75 9.5C23.75 6.8875 25.8875 4.75 28.5 4.75Z" fill="black"/>
</svg>
