<svg width="46" height="29" viewBox="0 0 46 29" fill="none" xmlns="http://www.w3.org/2000/svg">
<path d="M13.8 14.5C18.2491 14.5 21.85 11.2569 21.85 7.25C21.85 3.24308 18.2491 0 13.8 0C9.35094 0 5.75 3.24308 5.75 7.25C5.75 11.2569 9.35094 14.5 13.8 14.5ZM19.32 16.5714H18.7234C17.2284 17.2188 15.5681 17.6071 13.8 17.6071C12.0319 17.6071 10.3788 17.2188 8.87656 16.5714H8.28C3.70875 16.5714 0 19.9116 0 24.0286V25.8929C0 27.6083 1.54531 29 3.45 29H24.15C26.0547 29 27.6 27.6083 27.6 25.8929V24.0286C27.6 19.9116 23.8913 16.5714 19.32 16.5714ZM34.5 14.5C38.3094 14.5 41.4 11.7165 41.4 8.28572C41.4 4.85491 38.3094 2.07143 34.5 2.07143C30.6906 2.07143 27.6 4.85491 27.6 8.28572C27.6 11.7165 30.6906 14.5 34.5 14.5ZM37.95 16.5714H37.6769C36.6778 16.8821 35.6213 17.0893 34.5 17.0893C33.3787 17.0893 32.3222 16.8821 31.3231 16.5714H31.05C29.5837 16.5714 28.2325 16.9533 27.0466 17.5683C28.8003 19.2708 29.9 21.5299 29.9 24.0286V26.5143C29.9 26.6567 29.8641 26.7926 29.8569 26.9286H42.55C44.4547 26.9286 46 25.5368 46 23.8214C46 19.8145 42.3991 16.5714 37.95 16.5714Z" fill="white"/>
<path d="M13.8 14.5C18.2491 14.5 21.85 11.2569 21.85 7.25C21.85 3.24308 18.2491 0 13.8 0C9.35094 0 5.75 3.24308 5.75 7.25C5.75 11.2569 9.35094 14.5 13.8 14.5ZM19.32 16.5714H18.7234C17.2284 17.2188 15.5681 17.6071 13.8 17.6071C12.0319 17.6071 10.3788 17.2188 8.87656 16.5714H8.28C3.70875 16.5714 0 19.9116 0 24.0286V25.8929C0 27.6083 1.54531 29 3.45 29H24.15C26.0547 29 27.6 27.6083 27.6 25.8929V24.0286C27.6 19.9116 23.8913 16.5714 19.32 16.5714ZM34.5 14.5C38.3094 14.5 41.4 11.7165 41.4 8.28572C41.4 4.85491 38.3094 2.07143 34.5 2.07143C30.6906 2.07143 27.6 4.85491 27.6 8.28572C27.6 11.7165 30.6906 14.5 34.5 14.5ZM37.95 16.5714H37.6769C36.6778 16.8821 35.6213 17.0893 34.5 17.0893C33.3787 17.0893 32.3222 16.8821 31.3231 16.5714H31.05C29.5837 16.5714 28.2325 16.9533 27.0466 17.5683C28.8003 19.2708 29.9 21.5299 29.9 24.0286V26.5143C29.9 26.6567 29.8641 26.7926 29.8569 26.9286H42.55C44.4547 26.9286 46 25.5368 46 23.8214C46 19.8145 42.3991 16.5714 37.95 16.5714Z" fill="white" fill-opacity="0.2"/>
</svg>
